<svg xmlns="http://www.w3.org/2000/svg" viewBox="0 0 800 500" width="100%" height="100%">
  <defs>
    <linearGradient id="artschool-grad" x1="0%" y1="0%" x2="100%" y2="100%">
      <stop offset="0%" stop-color="#D97706" />
      <stop offset="50%" stop-color="#F59E0B" />
      <stop offset="100%" stop-color="#EF4444" />
    </linearGradient>
    <pattern id="grid" width="40" height="40" patternUnits="userSpaceOnUse">
      <path d="M 40 0 L 0 0 0 40" fill="none" stroke="rgba(255, 255, 255, 0.05)" stroke-width="1"/>
    </pattern>
  </defs>
  <rect width="100%" height="100%" fill="url(#artschool-grad)" />
  <rect width="100%" height="100%" fill="url(#grid)" />
  
  <!-- Content -->
  <g transform="translate(100, 100)" stroke="white" stroke-width="2" fill="none" stroke-linecap="round" stroke-linejoin="round">
    <!-- Paint Palette -->
    <path d="M12 22C17.5228 22 22 17.5228 22 12C22 6.47715 17.5228 2 12 2C6.47715 2 2 6.47715 2 12C2 14.7255 3.09032 17.1962 4.85857 19H12Z" stroke-width="3"/>
    <circle cx="7.5" cy="10.5" r="1.5" fill="white" />
    <circle cx="11.5" cy="7.5" r="1.5" fill="white" />
    <circle cx="16.5" cy="11.5" r="1.5" fill="white" />
  </g>
  
  <text x="100" y="360" fill="white" font-family="system-ui, sans-serif" font-size="44" font-weight="800" letter-spacing="-1">ArtSchool</text>
  <text x="100" y="410" fill="rgba(255, 255, 255, 0.7)" font-family="system-ui, sans-serif" font-size="20" font-weight="500">Creative Learning &amp; Art Portfolios</text>
</svg>
